<?xml version="1.0" encoding="UTF-8"?>
<svg width="48" height="48" viewBox="0 0 48 48" xmlns="http://www.w3.org/2000/svg">
  <!-- Background -->
  <rect width="48" height="48" rx="9" fill="#2F3136"/>
  
  <!-- YouTube Logo -->
  <g transform="translate(9, 24)">
    <path d="M27 0C26.4 -1.8 25.2 -3 23.4 -3.6C20.1 -4.5 12.6 -4.5 12.6 -4.5C12.6 -4.5 5.1 -4.5 1.8 -3.6C0 -3 -1.2 -1.8 -1.8 0C-2.4 3.3 -2.4 8.4 -2.4 8.4C-2.4 8.4 -2.4 13.5 -1.8 16.8C-1.2 18.6 0 19.8 1.8 20.4C5.1 21.3 12.6 21.3 12.6 21.3C12.6 21.3 20.1 21.3 23.4 20.4C25.2 19.8 26.4 18.6 27 16.8C27.6 13.5 27.6 8.4 27.6 8.4C27.6 8.4 27.6 3.3 27 0Z" fill="#FF0000"/>
    <path d="M8.4 12L18 6L8.4 0V12Z" fill="white"/>
  </g>
  
  <!-- Prohibition Circle -->
  <circle cx="24" cy="24" r="22" fill="none" stroke="#FF0000" stroke-width="3"/>
  <line x1="7.5" y1="7.5" x2="40.5" y2="40.5" stroke="#FF0000" stroke-width="3"/>
</svg> 